<svg width="20" height="18" viewBox="0 0 20 18" fill="none" xmlns="http://www.w3.org/2000/svg">
<path d="M14.0909 17V15.2222C14.0909 14.2792 13.7461 13.3749 13.1323 12.7081C12.5186 12.0413 11.6862 11.6667 10.8182 11.6667H4.27273C3.40475 11.6667 2.57232 12.0413 1.95856 12.7081C1.3448 13.3749 1 14.2792 1 15.2222V17M19 17V15.2222C18.9995 14.4344 18.7581 13.6691 18.3138 13.0465C17.8696 12.4239 17.2476 11.9792 16.5455 11.7822M13.2727 1.11556C13.9767 1.31138 14.6007 1.75618 15.0462 2.37983C15.4918 3.00348 15.7337 3.77052 15.7337 4.56C15.7337 5.34948 15.4918 6.11652 15.0462 6.74017C14.6007 7.36382 13.9767 7.80862 13.2727 8.00444M10.8182 4.55556C10.8182 6.51923 9.35293 8.11111 7.54545 8.11111C5.73798 8.11111 4.27273 6.51923 4.27273 4.55556C4.27273 2.59188 5.73798 1 7.54545 1C9.35293 1 10.8182 2.59188 10.8182 4.55556Z" stroke="white" stroke-width="1.5" stroke-linecap="round" stroke-linejoin="round"/>
</svg>
