<svg width="48" height="30" viewBox="0 0 48 30" fill="none" xmlns="http://www.w3.org/2000/svg">
<path d="M41.4408 28.3485L39.9496 15.8062L30.6956 10.8811V8.10098L24.1364 3.26384L17.5773 7.94462L16.7001 25.8518L12.558 26.8827L13.4156 13.8762L16.9584 11.2818L17.0948 8.3355L8.95188 14.4723L8.84954 16.5147L8.8398 16.6515L12.4897 14.443L12.4946 15.0342L8.79107 17.2769L8.67411 18.8306L8.66437 18.9528L12.2607 16.7736L12.2802 17.3551L8.62051 19.5733L8.61563 19.6466L8.48893 21.3713L8.47919 21.5179L12.0804 19.5391L12.0902 20.1156L8.43533 22.1238L8.29401 24.0049L8.26964 24.3518L11.6662 22.6319L11.6954 23.1889L8.23066 24.9479L8.08934 26.8632V26.8827L11.5492 25.5782L11.559 26.1156L8.05036 27.4397L8.04548 27.4739L8.0065 28.0261L0 30L24.1072 26.3111L48 30L41.4408 28.3485ZM24.1608 23.9951L19.01 25.2752L19.3998 8.057L24.0926 4.83713L28.839 8.04723L29.2288 25.2704L24.1608 23.9951ZM31.5143 25.8469L30.8808 13.2655L38.8093 17.0033L40.1689 28.0261L31.5143 25.8469Z" fill="white"/>
<path d="M17.6552 6.28339L24.1072 1.57818L30.5056 6.28339V5.05212L24.0829 0L17.6552 5.05212V6.28339Z" fill="white"/>
<path d="M33.332 17.057L37.2548 19.0114V18.342L33.332 17.057Z" fill="white"/>
<path d="M33.5513 20.1743L37.4741 22.1238V21.4593L33.5513 20.1743Z" fill="white"/>
<path d="M33.8485 23.1303L37.7714 25.0847V24.4153L33.8485 23.1303Z" fill="white"/>
<path d="M19.4681 23.4919L24.0829 22.1238L28.6782 23.4919L24.0829 21.3176L19.4681 23.4919Z" fill="white"/>
<path d="M24.0828 18.0342L19.7165 19.715L24.0828 17.2476L28.6781 19.715L24.0828 18.0342Z" fill="white"/>
<path d="M19.7165 16.3388L24.0731 14.3844L28.6781 16.3388L24.0828 13.3436L19.7165 16.3388Z" fill="white"/>
<path d="M24.0828 9.81108L28.6781 12.9967L24.0828 10.7736L19.7165 12.8355L24.0828 9.81108Z" fill="white"/>
<path d="M24.0828 7.3241L19.7165 9.81108L24.0828 6.44463L28.6781 9.81108L24.0828 7.3241Z" fill="white"/>
</svg>
