<svg width="17" height="20" viewBox="0 0 17 20" fill="none" xmlns="http://www.w3.org/2000/svg">
<path d="M10.375 1H2.875C2.37772 1 1.90081 1.18964 1.54917 1.52721C1.19754 1.86477 1 2.32261 1 2.8V17.2C1 17.6774 1.19754 18.1352 1.54917 18.4728C1.90081 18.8104 2.37772 19 2.875 19H14.125C14.6223 19 15.0992 18.8104 15.4508 18.4728C15.8025 18.1352 16 17.6774 16 17.2V6.4M10.375 1L16 6.4M10.375 1V6.4H16M12.25 10.9H4.75M12.25 14.5H4.75M6.625 7.3H4.75" stroke="white" stroke-width="1.5" stroke-linecap="round" stroke-linejoin="round"/>
</svg>
