<svg width="127" height="10" viewBox="0 0 127 10" fill="none" xmlns="http://www.w3.org/2000/svg">
<path d="M1.91317 7.52672C1.30444 7.17557 0.817447 6.68702 0.48699 6.07634C0.173925 5.46565 0 4.77863 0 4.03053C0 3.28244 0.173925 2.59542 0.504382 1.98473C0.83484 1.37405 1.30444 0.885496 1.93057 0.534351C2.5393 0.183207 3.2524 0 4.06984 0C4.88729 0 5.60038 0.183207 6.20912 0.534351C6.81786 0.885496 7.30485 1.37405 7.63531 1.98473C7.96576 2.59542 8.13969 3.28244 8.13969 4.03053C8.13969 4.77863 7.96576 5.46565 7.63531 6.07634C7.30485 6.68702 6.83525 7.17557 6.20912 7.52672C5.60038 7.87786 4.88729 8.06107 4.06984 8.06107C3.235 8.0458 2.52191 7.87786 1.91317 7.52672ZM5.53081 7.16031C5.94823 6.87023 6.2613 6.45802 6.47001 5.92366C6.69611 5.38931 6.80047 4.76336 6.80047 4.03053C6.80047 3.29771 6.69611 2.67176 6.47001 2.1374C6.24391 1.60305 5.93084 1.19084 5.53081 0.900764C5.11339 0.610687 4.6264 0.458015 4.05245 0.458015C3.4785 0.458015 2.99151 0.610687 2.57409 0.900764C2.15667 1.19084 1.8436 1.60305 1.63489 2.1374C1.40879 2.67176 1.30444 3.31298 1.30444 4.03053C1.30444 4.76336 1.40879 5.38931 1.63489 5.92366C1.861 6.45802 2.17406 6.87023 2.57409 7.16031C2.99151 7.45038 3.4785 7.60305 4.05245 7.60305C4.6264 7.58779 5.11339 7.45038 5.53081 7.16031Z" fill="white"/>
<path d="M11.2182 7.52672C10.6094 7.17557 10.1224 6.68702 9.79198 6.07634C9.46152 5.46565 9.28759 4.77863 9.28759 4.03053C9.28759 3.28244 9.46152 2.59542 9.79198 1.98473C10.1224 1.37405 10.592 0.885496 11.2182 0.534351C11.8269 0.183207 12.54 0 13.3574 0C14.1749 0 14.888 0.183207 15.4967 0.534351C16.1054 0.885496 16.5924 1.37405 16.9229 1.98473C17.2534 2.59542 17.4273 3.28244 17.4273 4.03053C17.4273 4.77863 17.2534 5.46565 16.9229 6.07634C16.5924 6.68702 16.1228 7.17557 15.4967 7.52672C14.888 7.87786 14.1749 8.06107 13.3574 8.06107C12.5574 8.0458 11.8443 7.87786 11.2182 7.52672ZM14.8358 7.16031C15.2532 6.87023 15.5663 6.45802 15.775 5.92366C16.0011 5.38931 16.1054 4.76336 16.1054 4.03053C16.1054 3.29771 16.0011 2.67176 15.775 2.1374C15.5489 1.60305 15.2358 1.19084 14.8358 0.900764C14.4184 0.610687 13.9314 0.458015 13.3574 0.458015C12.7835 0.458015 12.2965 0.610687 11.8791 0.900764C11.4617 1.19084 11.1486 1.60305 10.9399 2.1374C10.7312 2.67176 10.6094 3.31298 10.6094 4.03053C10.6094 4.76336 10.7138 5.38931 10.9399 5.92366C11.166 6.45802 11.479 6.87023 11.8791 7.16031C12.2965 7.45038 12.7835 7.60305 13.3574 7.60305C13.9314 7.58779 14.4184 7.45038 14.8358 7.16031Z" fill="white"/>
<path d="M20.5231 7.52672C19.9144 7.17557 19.4274 6.68702 19.097 6.07634C18.7665 5.46565 18.5926 4.77863 18.5926 4.03053C18.5926 3.28244 18.7665 2.59542 19.097 1.98473C19.4274 1.37405 19.897 0.885496 20.5231 0.534351C21.1319 0.183207 21.845 0 22.6624 0C23.4799 0 24.193 0.183207 24.8017 0.534351C25.4104 0.885496 25.8974 1.37405 26.2279 1.98473C26.5583 2.59542 26.7323 3.28244 26.7323 4.03053C26.7323 4.77863 26.5583 5.46565 26.2279 6.07634C25.8974 6.68702 25.4278 7.17557 24.8017 7.52672C24.193 7.87786 23.4799 8.06107 22.6624 8.06107C21.8624 8.0458 21.1493 7.87786 20.5231 7.52672ZM24.1408 7.16031C24.5582 6.87023 24.8713 6.45802 25.08 5.92366C25.3061 5.38931 25.4104 4.76336 25.4104 4.03053C25.4104 3.29771 25.3061 2.67176 25.08 2.1374C24.8539 1.60305 24.5408 1.19084 24.1408 0.900764C23.7234 0.610687 23.2364 0.458015 22.6624 0.458015C22.0885 0.458015 21.6015 0.610687 21.1841 0.900764C20.7666 1.19084 20.4536 1.60305 20.2449 2.1374C20.0188 2.67176 19.9144 3.29771 19.9144 4.03053C19.9144 4.76336 20.0188 5.38931 20.2449 5.92366C20.471 6.45802 20.784 6.87023 21.1841 7.16031C21.6015 7.45038 22.0885 7.60305 22.6624 7.60305C23.2364 7.58779 23.7234 7.45038 24.1408 7.16031Z" fill="white"/>
<path d="M31.9848 1.61832C31.9848 1.22137 31.9152 0.946566 31.7935 0.748092C31.6717 0.564886 31.4282 0.473282 31.063 0.473282H30.8021V0.244275H36.2286C36.9764 0.244275 37.3417 0.549618 37.3417 1.16031V2.01527H37.0808C37.0808 1.12977 36.5416 0.70229 35.4459 0.70229H33.1501V7.81679H31.9674V1.61832H31.9848Z" fill="white"/>
<path d="M38.994 1.61832C38.994 1.22137 38.9244 0.946566 38.8027 0.748092C38.6809 0.564886 38.4374 0.473282 38.0722 0.473282H37.8113V0.244275H38.994C39.3244 0.244275 39.5505 0.274809 39.7245 0.351145C39.881 0.427481 40.0027 0.549619 40.0723 0.748092C40.1419 0.946566 40.1767 1.23664 40.1767 1.61832V6.79389L44.3509 0.244275H45.5336V7.81679H44.3509V1.28244L40.1767 7.81679L38.994 7.81679V1.61832Z" fill="white"/>
<path d="M54.3689 8.27481C54.1081 7.96947 53.7428 7.81679 53.2732 7.81679H48.0381V1.61832C48.0381 1.22137 47.9685 0.946566 47.8468 0.748092C47.725 0.564886 47.4815 0.473282 47.1163 0.473282H46.8554V0.244275H48.0381C48.3685 0.244275 48.5946 0.274809 48.7686 0.351145C48.9251 0.427481 49.0468 0.549619 49.1164 0.748092C49.186 0.946566 49.2208 1.23664 49.2208 1.61832V7.35878H53.1515V0.244275H54.3342V7.35878H55.0472C55.1864 7.35878 55.2907 7.40458 55.3777 7.48092C55.4647 7.55725 55.5168 7.64885 55.5168 7.77099V9.87786H54.9255C54.8037 9.1145 54.6298 8.58015 54.3689 8.27481Z" fill="white"/>
<path d="M59.4649 5.23664L61.4999 2.99237H62.0216L60.7868 5.23664L62.0216 7.48092H61.4999L59.4649 5.23664ZM61.3085 5.23664L62.613 3.57252H63.1348L62.3521 5.23664L63.1348 6.90076H62.613L61.3085 5.23664Z" fill="white"/>
<path d="M65.2566 1.61832C65.2566 1.22137 65.1871 0.946566 65.0653 0.748092C64.9436 0.564886 64.7001 0.473282 64.3348 0.473282H64.074V0.244275H65.2566C65.5871 0.244275 65.8132 0.274809 65.9871 0.351145C66.1437 0.427481 66.2654 0.549619 66.335 0.748092C66.4045 0.946566 66.4393 1.23664 66.4393 1.61832V6.79389L70.6309 0.259542H71.8136V7.81679H70.6309V1.28244L66.4393 7.81679H65.2566V1.61832Z" fill="white"/>
<path d="M74.0399 3.80153C74.0399 3.40458 73.9703 3.12977 73.8485 2.9313C73.7268 2.74809 73.4833 2.65649 73.118 2.65649H72.9267V2.42748H74.0399C74.3703 2.42748 74.5964 2.45801 74.7703 2.53435C74.9269 2.61069 75.0486 2.73282 75.1182 2.9313C75.1878 3.12977 75.2225 3.41985 75.2225 3.80153V4.8855H77.8314V2.41221H79.0141V6.44275C79.0141 6.83969 79.0837 7.1145 79.2054 7.31298C79.3272 7.49618 79.5707 7.58779 79.9359 7.58779H80.1272V7.81679H79.0141C78.6836 7.81679 78.4576 7.78626 78.2836 7.70992C78.1271 7.63359 78.0053 7.51145 77.9358 7.31298C77.8662 7.1145 77.8314 6.82443 77.8314 6.44275V5.35878H75.2225V7.81679H74.0399V3.80153Z" fill="white"/>
<path d="M83.884 7.93893C82.8752 7.9084 82.0926 7.63359 81.5534 7.1145C81.0142 6.59542 80.736 5.93893 80.736 5.12977C80.736 4.32061 81.0142 3.64885 81.5534 3.14504C82.0926 2.62595 82.8752 2.35115 83.884 2.32061V1.63359C83.884 1.23664 83.8144 0.961832 83.6927 0.763359C83.5709 0.580153 83.3274 0.48855 82.9622 0.48855H82.7883V0.259542H83.9014C84.2319 0.259542 84.458 0.290076 84.6319 0.366412C84.7884 0.442748 84.9102 0.564885 84.9797 0.763359C85.0493 0.961832 85.0841 1.25191 85.0841 1.63359V2.32061C86.0929 2.35115 86.8755 2.62595 87.4147 3.14504C87.9538 3.66412 88.2321 4.32061 88.2321 5.12977C88.2321 5.93893 87.9538 6.61069 87.4147 7.1145C86.8755 7.63359 86.0929 7.9084 85.0841 7.93893V10H83.9014V7.93893H83.884ZM83.9014 2.71756C83.2579 2.77863 82.7709 3.0229 82.4578 3.43511C82.1448 3.84733 81.9882 4.41221 81.9882 5.12977C81.9882 5.84733 82.1448 6.41221 82.4578 6.82443C82.7709 7.23664 83.2579 7.48092 83.9014 7.54198V2.71756ZM86.4929 6.80916C86.8059 6.39695 86.9625 5.83206 86.9625 5.1145C86.9625 4.39695 86.8059 3.83206 86.4929 3.41985C86.1798 3.00763 85.6928 2.76336 85.0493 2.70229V7.52672C85.6928 7.46565 86.1798 7.23664 86.4929 6.80916Z" fill="white"/>
<path d="M90.7366 7.55725C90.3018 7.31298 89.9714 6.9771 89.7453 6.53435C89.5192 6.10687 89.3974 5.63359 89.3974 5.1145C89.3974 4.59542 89.5192 4.12214 89.7453 3.69466C89.9714 3.26718 90.3018 2.9313 90.7366 2.67176C91.1715 2.42748 91.6932 2.30534 92.2846 2.30534C92.8759 2.30534 93.3977 2.42748 93.8325 2.67176C94.2673 2.91603 94.5978 3.25191 94.8239 3.69466C95.05 4.12214 95.1717 4.59542 95.1717 5.1145C95.1717 5.63359 95.05 6.10687 94.8239 6.53435C94.5978 6.96183 94.2673 7.29771 93.8325 7.55725C93.3977 7.80153 92.8759 7.92366 92.2846 7.92366C91.6758 7.93893 91.1715 7.81679 90.7366 7.55725ZM93.1194 7.16031C93.3629 6.94656 93.5542 6.67176 93.6934 6.30534C93.8325 5.93893 93.9021 5.54198 93.9021 5.1145C93.9021 4.68702 93.8325 4.27481 93.6934 3.92366C93.5542 3.55725 93.3629 3.28244 93.1194 3.0687C92.8759 2.85496 92.5803 2.76336 92.2672 2.76336C91.9367 2.76336 91.6584 2.87023 91.4149 3.0687C91.1715 3.28244 90.9801 3.55725 90.841 3.92366C90.7019 4.29008 90.6323 4.68702 90.6323 5.1145C90.6323 5.54198 90.7019 5.9542 90.841 6.30534C90.9801 6.67176 91.1715 6.94656 91.4149 7.16031C91.6584 7.37405 91.9541 7.46565 92.2672 7.46565C92.5976 7.48092 92.8759 7.37405 93.1194 7.16031Z" fill="white"/>
<path d="M97.6067 7.55725C97.1719 7.31298 96.8588 6.9771 96.6327 6.54962C96.424 6.12214 96.3196 5.64886 96.3196 5.1145C96.3196 4.58015 96.424 4.10687 96.6327 3.67939C96.8414 3.25191 97.1719 2.91603 97.6067 2.67176C98.0415 2.42748 98.5633 2.30534 99.1894 2.30534C100.146 2.30534 100.772 2.44275 101.085 2.70229C101.242 2.83969 101.329 2.99237 101.363 3.17557C101.398 3.35878 101.416 3.69466 101.416 4.19847H101.155C101.12 3.72519 100.946 3.35878 100.65 3.12977C100.337 2.8855 99.9547 2.76336 99.4677 2.76336C98.8416 2.76336 98.372 2.9771 98.0415 3.41985C97.7284 3.8626 97.5719 4.42748 97.5719 5.1145C97.5719 5.81679 97.7284 6.38168 98.0415 6.80916C98.3546 7.25191 98.8242 7.46565 99.4677 7.46565C99.9199 7.46565 100.285 7.38931 100.563 7.23664C100.859 7.08397 101.12 6.85496 101.363 6.54962L101.624 6.71756C101.329 7.14504 100.998 7.45038 100.598 7.64885C100.198 7.84733 99.746 7.92366 99.2068 7.92366C98.5807 7.93893 98.0415 7.81679 97.6067 7.55725Z" fill="white"/>
<path d="M103.172 3.80153C103.172 3.40458 103.103 3.12977 102.981 2.9313C102.859 2.74809 102.616 2.65649 102.25 2.65649H102.059V2.42748H103.172C103.503 2.42748 103.729 2.45801 103.903 2.53435C104.059 2.61069 104.181 2.73282 104.251 2.9313C104.32 3.12977 104.355 3.41985 104.355 3.80153V6.79389L107.103 2.42748H108.286V7.81679H107.103V3.45038L104.355 7.81679H103.172V3.80153Z" fill="white"/>
<path d="M111.886 2.8855H111.225C110.808 2.8855 110.477 2.99237 110.234 3.19084C109.973 3.38931 109.851 3.67939 109.851 4.03053H109.59V3.34351C109.59 2.73282 109.921 2.42748 110.564 2.42748H115.208V2.8855H113.051V7.81679H111.869V2.8855H111.886Z" fill="white"/>
<path d="M116.53 3.80153C116.53 3.40458 116.46 3.12977 116.338 2.9313C116.217 2.74809 115.973 2.65649 115.608 2.65649H115.417V2.42748H116.53C116.86 2.42748 117.086 2.45801 117.26 2.53435C117.417 2.61069 117.538 2.73282 117.608 2.9313C117.678 3.12977 117.712 3.41985 117.712 3.80153V6.79389L120.46 2.42748H121.643V7.81679H120.46V3.45038L117.712 7.81679H116.53V3.80153Z" fill="white"/>
<path d="M124.113 5.23664L123.33 3.57252H123.852L125.156 5.23664L123.852 6.90076H123.33L124.113 5.23664ZM125.678 5.23664L124.443 2.99237H124.965L127 5.23664L124.965 7.48092H124.443L125.678 5.23664Z" fill="white"/>
</svg>
