<svg width="15" height="22" viewBox="0 0 15 22" fill="none" xmlns="http://www.w3.org/2000/svg">
<path opacity="0.6" d="M4.45515 17.7451C4.54153 17.7048 4.62791 17.6243 4.71429 17.584C4.80066 17.5035 4.88704 17.4632 4.93023 17.3827C5.01661 17.3021 5.0598 17.2216 5.10299 17.1411L12.402 5.34287L13.3953 3.7322C13.9136 2.8866 13.6113 1.83966 12.7043 1.35646L12.4884 1.23566C11.5814 0.752455 10.4585 1.03432 9.9402 1.87993L1.64784 15.2485C1.60465 15.329 1.56146 15.4096 1.51827 15.5304C1.47508 15.6109 1.43189 15.7317 1.43189 15.8122C1.43189 15.8928 1.3887 16.0136 1.3887 16.0941M4.45515 17.7451L1 20L1.3887 16.0941M4.45515 17.7451L4.49834 17.7048L4.71429 17.5437M1.3887 16.0941L1.43189 15.772M8.94684 3.4906L14 6.18848L10.5449 11.705" stroke="#323432" stroke-width="1.29545" stroke-miterlimit="10" stroke-linecap="round"/>
</svg>
