<svg width="18" height="18" viewBox="0 0 18 18" fill="none" xmlns="http://www.w3.org/2000/svg">
<path d="M9.63951 9.63928L13.1447 13.062M9.0413 8.09303V3.35076M9.0413 1V2.52577M14.6701 3.35076L13.8248 4.19612M15.2679 9.04068H16.9998M14.6699 14.6698L13.6596 13.6595M9.0413 15.4946V16.9998M4.19611 13.4324L3.16518 14.4633M2.81443 9.04068H1M4.42225 4.11372L3.49442 3.18588M17 9C17 13.4183 13.4183 17 9 17C4.58172 17 1 13.4183 1 9C1 4.58172 4.58172 1 9 1C13.4183 1 17 4.58172 17 9ZM9.90707 9.00043C9.90707 9.50147 9.50089 9.90764 8.99985 9.90764C8.49881 9.90764 8.09263 9.50147 8.09263 9.00043C8.09263 8.49938 8.49881 8.09321 8.99985 8.09321C9.50089 8.09321 9.90707 8.49938 9.90707 9.00043Z" stroke="#323432"/>
</svg>
